<svg version="1.1" viewBox="0.0 0.0 800.0 600.0" fill="none" stroke="none" stroke-linecap="square" stroke-miterlimit="10" xmlns:xlink="http://www.w3.org/1999/xlink" xmlns="http://www.w3.org/2000/svg"><clipPath id="p.0"><path d="m0 0l800.0 0l0 600.0l-800.0 0l0 -600.0z" clip-rule="nonzero"/></clipPath><g clip-path="url(#p.0)"><path fill="#000000" fill-opacity="0.0" d="m0 0l800.0 0l0 600.0l-800.0 0z" fill-rule="evenodd"/><path fill="#efefef" d="m265.52493 120.68284l0 0c0 -9.244118 7.4938354 -16.737953 16.737946 -16.737953l159.65796 0c4.4391785 0 8.696533 1.7634583 11.83551 4.9024277c3.138977 3.138977 4.9024353 7.396347 4.9024353 11.8355255l0 33.988655c0 9.24411 -7.4938354 16.73796 -16.737946 16.73796l-159.65796 0c-9.24411 0 -16.737946 -7.4938507 -16.737946 -16.73796z" fill-rule="evenodd"/><path stroke="#b7b7b7" stroke-width="3.0" stroke-linejoin="round" stroke-linecap="butt" stroke-dasharray="3.0,9.0" d="m265.52493 120.68284l0 0c0 -9.244118 7.4938354 -16.737953 16.737946 -16.737953l159.65796 0c4.4391785 0 8.696533 1.7634583 11.83551 4.9024277c3.138977 3.138977 4.9024353 7.396347 4.9024353 11.8355255l0 33.988655c0 9.24411 -7.4938354 16.73796 -16.737946 16.73796l-159.65796 0c-9.24411 0 -16.737946 -7.4938507 -16.737946 -16.73796z" fill-rule="evenodd"/><path fill="#434343" d="m297.65005 152.38966q-5.3125 0 -8.515625 -2.015625q-3.203125 -2.015625 -3.203125 -6.171875q0 -2.203125 0.75 -3.359375q0.765625 -1.171875 2.25 -1.171875q1.078125 0 1.75 0.5625q0.6875 0.5625 0.6875 1.4375q0 0.8125 -0.109375 1.40625q0 0.15625 -0.0625 0.5625q-0.0625 0.390625 -0.0625 0.84375q0 1.796875 1.8125 2.671875q1.828125 0.875 5.109375 0.875q3.390625 0 5.3125 -1.21875q1.921875 -1.21875 1.921875 -3.421875q0 -1.359375 -0.890625 -2.328125q-0.875 -0.984375 -2.203125 -1.640625q-1.3125 -0.65625 -3.703125 -1.625q-3.078125 -1.203125 -5.03125 -2.28125q-1.9375 -1.078125 -3.3125 -2.9375q-1.375 -1.859375 -1.375 -4.625q0 -2.875 1.53125 -5.109375q1.546875 -2.25 4.4375 -3.484375q2.90625 -1.234375 6.828125 -1.234375q2.921875 0 5.359375 0.859375q2.4375 0.859375 3.890625 2.625q1.46875 1.75 1.46875 4.3125q0 2.515625 -0.765625 3.796875q-0.75 1.28125 -2.234375 1.28125q-1.03125 0 -1.734375 -0.640625q-0.703125 -0.640625 -0.703125 -1.515625q0 -0.765625 0.125 -1.40625q0.109375 -1.203125 0.109375 -1.515625q0 -1.6875 -1.640625 -2.5625q-1.640625 -0.875 -4.078125 -0.875q-3.4375 0 -5.265625 1.265625q-1.8125 1.25 -1.8125 3.53125q0 1.515625 0.9375 2.59375q0.9375 1.078125 2.34375 1.796875q1.40625 0.71875 3.921875 1.71875q3.03125 1.25 4.875 2.25q1.84375 1.0 3.140625 2.71875q1.296875 1.71875 1.296875 4.234375q0 4.71875 -3.578125 7.265625q-3.578125 2.53125 -9.578125 2.53125zm34.007477 -9.234375q0.515625 0 0.8125 0.484375q0.296875 0.484375 0.296875 1.3125q0 1.609375 -0.75 2.484375q-1.71875 2.125 -3.765625 3.484375q-2.046875 1.359375 -4.671875 1.359375q-8.171875 0 -8.171875 -11.484375q0 -1.765625 0.125 -3.5625l-1.5625 0q-1.203125 0 -1.625 -0.4375q-0.40625 -0.4375 -0.40625 -1.40625q0 -2.234375 1.796875 -2.234375l2.28125 0q0.671875 -4.390625 2.0625 -8.03125q1.40625 -3.640625 3.390625 -5.796875q1.984375 -2.171875 4.265625 -2.171875q1.671875 0 2.625 1.484375q0.96875 1.484375 0.96875 3.71875q0 6.203125 -5.203125 10.796875l4.484375 0q0.640625 0 0.921875 0.28125q0.28125 0.28125 0.28125 1.046875q0 2.75 -4.515625 2.75l-4.890625 0q-0.078125 2.0 -0.078125 3.125q0 4.15625 0.984375 5.84375q0.984375 1.671875 3.09375 1.671875q1.71875 0 3.03125 -1.03125q1.328125 -1.046875 3.140625 -3.125q0.46875 -0.5625 1.078125 -0.5625zm-7.0 -22.15625q-0.609375 0 -1.34375 1.5q-0.734375 1.5 -1.40625 4.15625q-0.65625 2.65625 -1.09375 5.90625q2.359375 -2.046875 3.53125 -4.578125q1.1875 -2.546875 1.1875 -4.625q0 -2.359375 -0.875 -2.359375zm10.110626 9.796875q-1.671875 0 -2.515625 -0.78125q-0.84375 -0.78125 -0.84375 -2.171875q0 -1.40625 1.09375 -2.34375q1.109375 -0.9375 2.75 -0.9375q1.484375 0 2.390625 0.71875q0.921875 0.71875 0.921875 2.03125q0 1.609375 -1.046875 2.546875q-1.03125 0.9375 -2.75 0.9375zm-0.3125 21.484375q-2.609375 0 -3.796875 -1.84375q-1.171875 -1.84375 -1.171875 -4.875q0 -1.796875 0.453125 -4.609375q0.46875 -2.828125 1.1875 -5.28125q0.359375 -1.28125 0.953125 -1.75q0.609375 -0.484375 1.9375 -0.484375q2.03125 0 2.03125 1.359375q0 1.0 -0.75 4.640625q-0.96875 4.40625 -0.96875 5.953125q0 1.203125 0.3125 1.84375q0.328125 0.640625 1.09375 0.640625q0.71875 0 1.796875 -1.0q1.078125 -1.0 2.875 -3.15625q0.484375 -0.5625 1.078125 -0.5625q0.53125 0 0.828125 0.484375q0.296875 0.484375 0.296875 1.3125q0 1.609375 -0.765625 2.484375q-3.953125 4.84375 -7.390625 4.84375zm22.761871 -9.125q0.515625 0 0.8125 0.484375q0.296875 0.484375 0.296875 1.3125q0 1.609375 -0.75 2.484375q-1.71875 2.125 -3.765625 3.484375q-2.046875 1.359375 -4.671875 1.359375q-8.171875 0 -8.171875 -11.484375q0 -1.765625 0.125 -3.5625l-1.5625 0q-1.203125 0 -1.625 -0.4375q-0.40625 -0.4375 -0.40625 -1.40625q0 -2.234375 1.796875 -2.234375l2.28125 0q0.671875 -4.390625 2.0625 -8.03125q1.40625 -3.640625 3.390625 -5.796875q1.984375 -2.171875 4.265625 -2.171875q1.671875 0 2.625 1.484375q0.96875 1.484375 0.96875 3.71875q0 6.203125 -5.203125 10.796875l4.484375 0q0.640625 0 0.921875 0.28125q0.28125 0.28125 0.28125 1.046875q0 2.75 -4.515625 2.75l-4.890625 0q-0.078125 2.0 -0.078125 3.125q0 4.15625 0.984375 5.84375q0.984375 1.671875 3.09375 1.671875q1.71875 0 3.03125 -1.03125q1.328125 -1.046875 3.140625 -3.125q0.46875 -0.5625 1.078125 -0.5625zm-7.0 -22.15625q-0.609375 0 -1.34375 1.5q-0.734375 1.5 -1.40625 4.15625q-0.65625 2.65625 -1.09375 5.90625q2.359375 -2.046875 3.53125 -4.578125q1.1875 -2.546875 1.1875 -4.625q0 -2.359375 -0.875 -2.359375zm12.516846 31.28125q-3.921875 0 -6.109375 -2.21875q-2.171875 -2.21875 -2.171875 -5.859375q0 -3.25 1.28125 -5.6875q1.28125 -2.4375 3.3125 -3.75q2.046875 -1.328125 4.28125 -1.328125q2.203125 0 3.421875 1.296875q1.21875 1.296875 1.21875 3.34375q0 1.6875 -0.75 2.84375q-0.734375 1.15625 -1.921875 1.15625q-0.765625 0 -1.234375 -0.359375q-0.453125 -0.359375 -0.453125 -1.0q0 -0.28125 0.078125 -0.640625q0.078125 -0.359375 0.125 -0.515625q0.203125 -0.609375 0.203125 -1.125q0 -0.515625 -0.265625 -0.796875q-0.265625 -0.28125 -0.734375 -0.28125q-0.921875 0 -1.734375 0.828125q-0.796875 0.8125 -1.28125 2.21875q-0.46875 1.390625 -0.46875 3.078125q0 4.640625 4.046875 4.640625q1.640625 0 3.53125 -1.09375q1.90625 -1.109375 3.75 -3.3125q0.46875 -0.5625 1.078125 -0.5625q0.515625 0 0.8125 0.484375q0.296875 0.484375 0.296875 1.3125q0 1.53125 -0.75 2.484375q-1.890625 2.328125 -4.515625 3.59375q-2.609375 1.25 -5.046875 1.25zm21.235626 -18.84375q1.28125 0 1.9375 0.671875q0.671875 0.65625 0.671875 1.921875q0 1.046875 -0.453125 3.921875q-0.390625 2.4375 -0.640625 4.625q-0.234375 2.1875 -0.234375 4.859375q0 1.515625 -0.625 2.1875q-0.609375 0.65625 -2.015625 0.65625q-1.3125 0 -1.921875 -0.671875q-0.59375 -0.6875 -0.59375 -2.046875q0 -1.609375 0.5625 -5.28125q0.46875 -3.203125 0.46875 -4.078125q0 -0.640625 -0.4375 -0.640625q-0.515625 0 -1.484375 1.34375q-0.953125 1.328125 -1.921875 3.53125q-0.953125 2.203125 -1.546875 4.640625q-0.4375 1.875 -1.03125 2.546875q-0.578125 0.65625 -1.8125 0.65625q-1.234375 0 -1.828125 -0.890625q-0.578125 -0.90625 -0.78125 -2.78125q-0.1875 -1.890625 -0.1875 -5.53125q0 -6.15625 1.25 -12.828125q1.265625 -6.6875 3.71875 -11.21875q2.46875 -4.546875 5.90625 -4.546875q1.84375 0 2.984375 1.578125q1.140625 1.578125 1.140625 4.09375q0 4.046875 -2.359375 8.390625q-2.359375 4.328125 -7.6875 10.125q-0.109375 2.09375 -0.109375 4.28125q1.3125 -3.390625 2.921875 -5.53125q1.625 -2.140625 3.203125 -3.0625q1.59375 -0.921875 2.90625 -0.921875zm-3.84375 -15.0q-0.71875 0 -1.59375 2.0625q-0.875 2.0625 -1.703125 5.5625q-0.8125 3.5 -1.34375 7.609375q2.484375 -2.90625 4.09375 -6.34375q1.625 -3.453125 1.625 -6.25q0 -1.28125 -0.28125 -1.953125q-0.265625 -0.6875 -0.796875 -0.6875zm11.771851 23.796875q-0.96875 0.078125 -1.546875 -0.5625q-0.578125 -0.640625 -0.578125 -1.796875q0 -1.078125 0.53125 -1.59375q0.546875 -0.515625 1.59375 -0.609375l8.1875 -0.796875q1.0 -0.078125 1.546875 0.5q0.546875 0.578125 0.546875 1.703125q0 2.15625 -2.09375 2.359375l-8.1875 0.796875zm51.748108 0.921875q0.53125 0 0.828125 0.484375q0.296875 0.484375 0.296875 1.3125q0 1.5625 -0.765625 2.484375q-1.90625 2.328125 -3.875 3.59375q-1.953125 1.25 -4.640625 1.25q-2.59375 0 -4.421875 -1.390625q-1.8125 -1.40625 -3.453125 -4.8125q-1.328125 -2.71875 -2.09375 -4.015625q-0.75 -1.296875 -1.5 -1.859375q-0.734375 -0.5625 -1.8125 -0.6875q-0.15625 0.84375 -0.921875 5.28125q-0.3125 2.0 -0.390625 2.4375q-0.40625 2.4375 -1.609375 3.75q-1.1875 1.296875 -3.640625 1.296875q-2.671875 0 -4.734375 -1.578125q-2.0625 -1.578125 -3.1875 -4.390625q-1.109375 -2.828125 -1.109375 -6.4375q0 -6.71875 2.328125 -11.59375q2.34375 -4.890625 6.5625 -7.46875q4.21875 -2.578125 9.75 -2.578125q3.84375 0 6.4375 1.171875q2.59375 1.15625 3.859375 3.203125q1.265625 2.03125 1.265625 4.59375q0 2.234375 -1.0625 4.375q-1.0625 2.140625 -3.1875 3.78125q-2.109375 1.640625 -5.15625 2.4375q1.921875 0.515625 2.953125 1.6875q1.046875 1.15625 2.09375 3.390625q1.109375 2.40625 2.203125 3.53125q1.109375 1.109375 2.546875 1.109375q1.28125 0 2.4375 -0.859375q1.171875 -0.859375 2.921875 -2.9375q0.484375 -0.5625 1.078125 -0.5625zm-26.953125 -3.671875q-1.359375 0 -1.859375 -0.640625q-0.5 -0.640625 -0.5 -1.453125q0 -0.953125 0.609375 -1.515625q0.625 -0.5625 1.421875 -0.5625l1.0 0q0.640625 -3.921875 1.203125 -6.75q0.53125 -2.609375 3.359375 -2.609375q2.28125 0 2.28125 2.046875q0 0.4375 -0.03125 0.671875l-1.203125 6.640625q2.15625 -0.109375 3.9375 -1.03125q1.78125 -0.921875 2.84375 -2.5625q1.0625 -1.640625 1.0625 -3.71875q0 -2.515625 -1.734375 -3.953125q-1.71875 -1.453125 -5.03125 -1.453125q-3.921875 0 -6.859375 1.953125q-2.9375 1.9375 -4.578125 5.765625q-1.640625 3.8125 -1.640625 9.28125q0 2.5625 0.515625 4.40625q0.515625 1.84375 1.28125 2.765625q0.765625 0.90625 1.4375 0.90625q0.515625 0 0.859375 -0.515625q0.34375 -0.515625 0.546875 -1.671875l1.078125 -6.0z" fill-rule="nonzero"/></g></svg>